
<svg fill="#8bc34a" width="1.5rem" height="1.5rem" viewBox="-3.2 -3.2 38.40 38.40" version="1.1" xmlns="http://www.w3.org/2000/svg" stroke="#8bc34a" transform="matrix(-1, 0, 0, 1, 0, 0)rotate(0)" stroke-width="0.00032">

<g id="SVGRepo_bgCarrier" stroke-width="0"/>

<g id="SVGRepo_tracerCarrier" stroke-linecap="round" stroke-linejoin="round" stroke="#CCCCCC" stroke-width="0.064"/>

<g id="SVGRepo_iconCarrier"> <title>time</title> <path d="M0 16q0-3.232 1.28-6.208t3.392-5.12 5.12-3.392 6.208-1.28q3.264 0 6.24 1.28t5.088 3.392 3.392 5.12 1.28 6.208q0 3.264-1.28 6.208t-3.392 5.12-5.12 3.424-6.208 1.248-6.208-1.248-5.12-3.424-3.392-5.12-1.28-6.208zM4 16q0 3.264 1.6 6.048t4.384 4.352 6.016 1.6 6.016-1.6 4.384-4.352 1.6-6.048-1.6-6.016-4.384-4.352-6.016-1.632-6.016 1.632-4.384 4.352-1.6 6.016zM14.016 16v-5.984q0-0.832 0.576-1.408t1.408-0.608 1.408 0.608 0.608 1.408v4h4q0.8 0 1.408 0.576t0.576 1.408-0.576 1.44-1.408 0.576h-6.016q-0.832 0-1.408-0.576t-0.576-1.44z"/> </g>

</svg>